<svg width="54" height="54" viewBox="0 0 54 54" fill="none" xmlns="http://www.w3.org/2000/svg">
<path d="M30.1938 52.5231L48.1769 44.7556C51.2239 43.4398 53.2079 40.3784 53.2079 36.986V16.5041C53.2079 13.0213 51.1246 9.92222 47.9968 8.6585L40.8293 5.76506C17.5235 0.811795 -0.00422001 29.1611 17.326 49.725L23.8041 52.5231C25.8501 53.4052 28.1458 53.4061 30.1938 52.5231Z" fill="#CC3939"/>
<path d="M40.8289 5.76474L30.0134 1.39863C28.0726 0.616037 25.9256 0.615604 23.9837 1.39863L6.00066 8.65829C2.87003 9.92309 0.789551 13.0247 0.789551 16.5039V36.9856C0.789551 40.3745 2.77046 43.4381 5.82062 44.7553L17.3256 49.7246C15.9461 46.0611 15.188 42.0811 15.188 37.9189C15.1881 22.0362 26.2019 8.7907 40.8289 5.76474Z" fill="#F281BE"/>
<path d="M43.6235 20.1323L45.1928 15.9307L29.9907 10.2524C22.5184 11.1839 17.5171 14.6486 18.759 22.8491L26.998 25.8482L43.6235 20.1323Z" fill="#F6E588"/>
<path d="M29.9913 10.2527L26.9985 9.13477L8.80371 15.9309L10.3024 19.7707L18.7595 22.8492C21.3602 17.7052 25.2498 13.3562 29.9913 10.2527Z" fill="#F1D35E"/>
<path d="M29.7869 42.6344V24.9802L26.9983 22.9725L20.1736 20.3313C11.886 23.4353 8.80347 33.9611 15.2799 40.4217L26.9983 44.9498L29.7869 42.6344Z" fill="#F1D35E"/>
<path d="M20.1739 20.3312L8.80371 15.9309V37.9191L15.2801 40.4216C14.7579 33.3279 16.4557 26.3192 20.1739 20.3312Z" fill="#EBB946"/>
<path d="M45.1929 15.9309V37.9191L26.998 44.9497V22.9724L45.1929 15.9309Z" fill="#EBB946"/>
<path d="M52.507 13.1007C51.6503 11.1092 50.0534 9.48996 47.9959 8.65862L40.8283 5.76518C34.4901 3.49154 27.8981 5.76518 29.9907 10.2529L45.1928 15.9311L52.507 13.1007Z" fill="#CC3939"/>
<path d="M30.0129 1.39869C29.0439 1.00804 28.021 0.811523 26.998 0.811523V9.13471L29.9908 10.2525C33.249 8.11982 36.9089 6.5756 40.8285 5.76479L30.0129 1.39869Z" fill="#F281BE"/>
<path d="M51.8537 41.6188C50.9758 42.9862 49.7114 44.0922 48.176 44.7553L30.1929 52.5228C29.171 52.9634 28.0846 53.1849 26.998 53.1849V44.9495L45.1929 37.9189L51.8537 41.6188Z" fill="#CC3939"/>
<path d="M8.80419 15.9308V37.919L2.14341 41.6188C1.27825 40.2709 0.790039 38.6689 0.790039 36.9856V16.5039C0.790039 15.3068 1.03673 14.1521 1.49004 13.1003L8.80419 15.9308Z" fill="#F281BE"/>
</svg>
