<svg width="573" height="583" viewBox="0 0 573 583" fill="none" xmlns="http://www.w3.org/2000/svg"><path opacity="0.05" fill-rule="evenodd" clip-rule="evenodd" d="M454.755 205.344C474.218 162.418 477.411 125.518 468.48 95.4648C460.584 68.7943 443.206 47.4453 419.274 31.7169C395.409 16.1034 364.99 6.11055 331.078 2.26728C245.304 -7.60775 136.659 21.1335 53.0098 94.2283C31.8435 112.725 18.7647 130.38 11.7018 147.317C-24.0416 212.96 34.8883 266.501 78.8264 302.827C131.892 346.741 145.454 382.694 161.545 481.634C162.678 488.635 164.27 495.37 166.303 501.544C175.525 545.36 203.92 570.146 238.001 578.79C253.625 582.781 270.287 583.266 287 580.658C303.599 578.116 320.069 572.434 335.178 563.865C348.22 556.488 360.232 546.797 370.295 535.323C400.152 507.216 418.388 465.612 410.481 413.995C400.578 349.905 383.707 328.11 426.955 259.818C438.991 240.622 448.121 222.492 454.755 205.344ZM414.007 337.1C415.514 223.56 586.137 186.284 571.385 305.788C561.556 385.556 515.69 437.908 475.976 442.313C442.279 446.001 412.985 415.151 414.007 337.1ZM27.2442 125.178C34.1589 115.675 43.2599 105.981 54.6623 96.0298C137.804 23.3813 245.627 -5.19184 330.924 4.65245C364.54 8.51351 394.53 18.2945 418.148 33.7447C441.585 49.1463 458.698 70.0361 466.444 96.181C472.987 118.122 472.853 143.611 464.561 172.739C500.778 -5.84789 220.315 -46.9129 47.924 104.513C39.7321 111.538 32.9537 118.361 27.2442 125.178ZM175.757 523.488C210.17 585.214 291.822 588.743 349.464 551.483C344.465 555.288 339.381 558.682 333.985 561.798C319.22 570.169 303.046 575.833 286.677 578.242C270.374 580.766 253.828 580.215 238.565 576.321C211.73 569.617 188.482 552.422 175.757 523.488Z" fill="#601AE2"></path></svg>