<svg width="160" height="140" viewBox="0 0 160 140" fill="none" xmlns="http://www.w3.org/2000/svg">
<path d="M6.56234 42.0404C29.0977 3.00804 79.0083 -10.3654 118.041 12.1699C157.073 34.7053 170.447 84.6158 147.911 123.648C142.219 133.508 137.508 137.631 133.215 138.389C128.958 139.141 124.648 136.662 119.49 131.901C116.94 129.548 114.253 126.706 111.327 123.562C110.904 123.108 110.477 122.647 110.044 122.181C107.49 119.431 104.76 116.492 101.815 113.511C94.9218 106.534 86.8083 99.2829 76.8212 93.5168C66.8382 87.7531 55.9678 84.0418 45.6849 81.0974C41.8359 79.9953 38.0874 79.0048 34.4979 78.0563C28.4409 76.4558 22.8368 74.9749 17.9668 73.2794C10.19 70.5719 4.7209 67.4467 2.44941 62.8173C0.212591 58.2585 0.905391 51.8385 6.56234 42.0404Z" stroke="#601AE2" stroke-width="4"/>
</svg>
