<svg width="800" height="800" viewBox="0 0 800 800" fill="none" xmlns="http://www.w3.org/2000/svg">
<path d="M45.4688 644.844V693.437C45.4688 705.469 55.1562 715.312 67.3437 715.312H732.5C744.531 715.312 754.375 705.625 754.375 693.437V644.844H45.4688Z" fill="#D3D9D9"/>
<path d="M680.156 715.312H732.656C744.688 715.312 754.375 705.625 754.375 693.594V645H702.031V693.594C702.031 705.469 692.344 715.312 680.156 715.312Z" fill="#A8B2B4"/>
<path d="M119.688 715.312H67.3437C55.3125 715.312 45.625 705.625 45.625 693.594V645H97.9688V693.594C97.9688 705.469 107.656 715.312 119.688 715.312Z" fill="#EDEDED"/>
<path d="M754.375 191.875V644.844H45.625V191.875C45.625 179.844 55.3125 170 67.3437 170H732.5C744.531 170 754.375 179.844 754.375 191.875Z" fill="#D4F0FC"/>
<path d="M505.469 793.75H294.375L330 715.312H470L505.469 793.75Z" fill="white"/>
<path d="M375.469 680.156C375.469 685.781 370.937 690.156 365.469 690.156C360 690.156 355.469 685.625 355.469 680.156C355.469 674.687 360 670.156 365.469 670.156C371.094 670 375.469 674.687 375.469 680.156Z" fill="#7C8B8E"/>
<path d="M410 680.156C410 685.781 405.469 690.156 400 690.156C394.531 690.156 390 685.625 390 680.156C390 674.687 394.531 670.156 400 670.156C405.625 670 410 674.687 410 680.156Z" fill="#7C8B8E"/>
<path d="M444.531 680.156C444.531 685.781 440 690.156 434.531 690.156C429.063 690.156 424.531 685.625 424.531 680.156C424.531 674.687 429.063 670.156 434.531 670.156C440 670 444.531 674.687 444.531 680.156Z" fill="#7C8B8E"/>
<path d="M688.281 89.6875H111.562V645H688.281V89.6875Z" fill="white"/>
<path d="M688.281 89.6875H648.125V645H688.281V89.6875Z" fill="#EDEDED"/>
<path d="M688.438 21.875V89.6875H111.562V21.7187C111.562 13.125 118.438 6.25 127.031 6.25H672.813C681.406 6.25 688.438 13.125 688.438 21.875Z" fill="#FB8A8A"/>
<path d="M167.5 6.25C158.906 6.25 152.031 13.125 152.031 21.7187V89.5312H111.562V21.7187C111.562 13.125 118.438 6.25 127.031 6.25H167.5Z" fill="#FCB1B1"/>
<path d="M688.438 21.875V89.6875H648.125V21.875C648.125 13.2812 641.25 6.25 632.656 6.25H672.969C681.406 6.25 688.438 13.125 688.438 21.875Z" fill="#F96363"/>
<path d="M168.125 54.2188H157.813C154.375 54.2188 151.562 51.4063 151.562 47.9688C151.562 44.5312 154.375 41.7188 157.813 41.7188H168.281C171.719 41.7188 174.531 44.5312 174.531 47.9688C174.531 51.4063 171.719 54.2188 168.125 54.2188Z" fill="#333333"/>
<path d="M218.906 54.2188H208.438C205 54.2188 202.188 51.4063 202.188 47.9688C202.188 44.5312 205 41.7188 208.438 41.7188H218.906C222.344 41.7188 225.156 44.5312 225.156 47.9688C225.156 51.4063 222.344 54.2188 218.906 54.2188Z" fill="#333333"/>
<path d="M269.531 54.2188H259.063C255.625 54.2188 252.812 51.4063 252.812 47.9688C252.812 44.5312 255.625 41.7188 259.063 41.7188H269.531C272.969 41.7188 275.781 44.5312 275.781 47.9688C275.781 51.4063 272.969 54.2188 269.531 54.2188Z" fill="#333333"/>
<path d="M642.188 54.2188H356.094C352.656 54.2188 349.844 51.4063 349.844 47.9688C349.844 44.5312 352.656 41.7188 356.094 41.7188H642.188C645.625 41.7188 648.438 44.5312 648.438 47.9688C648.438 51.4063 645.625 54.2188 642.188 54.2188Z" fill="#333333"/>
<path d="M732.5 163.75H694.531V21.875C694.531 9.84375 684.844 0 672.812 0H127.188C115.156 0 105.469 9.6875 105.469 21.7187V163.75H67.3437C51.875 163.75 39.375 176.25 39.375 191.875V693.437C39.375 708.906 52.0313 721.562 67.5 721.562H320.313L290.313 787.5H272.188C268.75 787.5 265.938 790.312 265.938 793.75C265.938 797.188 268.75 800 272.188 800H527.5C530.937 800 533.75 797.188 533.75 793.75C533.75 790.312 530.937 787.5 527.5 787.5H509.375L479.687 721.562H732.5C747.969 721.562 760.625 708.906 760.625 693.437V191.875C760.625 176.406 747.969 163.75 732.5 163.75ZM117.813 21.7187C117.813 16.5625 122.031 12.5 127.031 12.5H672.812C677.969 12.5 682.031 16.7188 682.031 21.875V83.4375H117.813V21.7187ZM117.813 95.9375H682.031V638.75H117.813V95.9375ZM51.875 191.875C51.875 183.281 58.75 176.25 67.3437 176.25H105.313V638.594H51.875V191.875ZM495.781 787.5H304.063L333.906 721.562H465.938L495.781 787.5ZM748.125 693.437C748.125 702.031 741.094 709.062 732.5 709.062H67.3437C58.75 709.062 51.7187 702.031 51.7187 693.437V651.094H748.125V693.437ZM748.125 638.594H694.531V176.25H732.5C740.937 176.25 748.125 183.438 748.125 191.875V638.594Z" fill="#333333"/>
<path d="M596.573 300.603C600.413 308.364 602.333 316.813 602.333 325.245C602.333 333.694 600.413 342.125 596.573 349.896H568.233C572.073 342.125 573.993 333.694 573.993 325.245C573.993 316.813 572.073 308.364 568.233 300.603H596.573Z" fill="#2BA5F7"/>
<path d="M543.224 526.195H395.864V495.391V378.834L512.42 495.39L543.224 526.195ZM420.872 501.187H482.848L420.872 439.212V501.187Z" fill="#2BA5F7"/>
<path d="M451.667 312.169C454.186 315.903 455.651 320.404 455.651 325.245C455.651 330.095 454.195 334.588 451.667 338.33L432.152 325.245L451.667 312.169Z" fill="#F95428"/>
<path d="M468.915 300.612C472.309 308.472 474.015 316.858 474.015 325.245C474.015 333.641 472.309 342.027 468.915 349.887V349.896L451.668 338.329C454.196 334.587 455.652 330.094 455.652 325.244C455.652 320.403 454.188 315.901 451.668 312.169L468.915 300.602V300.612Z" fill="#F2F2F2"/>
<path d="M573.681 325.245H573.993C573.993 333.694 572.073 342.125 568.233 349.895H553.379H468.914V349.887C472.308 342.027 474.014 333.641 474.014 325.245H573.681Z" fill="#F95428"/>
<path d="M474.014 325.245C474.014 316.858 472.308 308.472 468.914 300.612V300.603H553.379H568.233C572.073 308.365 573.993 316.814 573.993 325.246H573.681H474.014V325.245Z" fill="#F95428"/>
<path d="M270.706 271.861V442.373H244.207C229.568 442.373 217.698 454.243 217.698 468.881V245.352C217.698 241.7 218.44 238.207 219.779 235.036C221.118 231.866 223.066 229.008 225.46 226.605C230.256 221.809 236.884 218.843 244.208 218.843H270.707V271.861H270.706Z" fill="#F2F2F2"/>
<path d="M482.848 501.187H420.872V439.211L482.848 501.187Z" fill="#CCCCCC"/>
<path d="M553.379 349.896V495.391H512.42L395.864 378.834V495.39H270.706H244.207C236.883 495.39 230.256 492.424 225.459 487.628C220.663 482.832 217.697 476.205 217.697 468.881C217.697 454.243 229.567 442.373 244.206 442.373H270.706V271.862H324.581V300.594V332.479V364.365V396.25V424.384H366.112V271.861H553.379V300.603H468.914L451.667 312.169L432.152 325.245L451.667 338.33L468.914 349.896H553.379Z" fill="#CCCCCC"/>
<path d="M324.581 268.717V236.832V208.697H366.113V271.861V424.385H324.581V396.251V364.365V332.479V300.594V271.861V268.717Z" fill="#F7B239"/>
<path d="M420.871 507.887H482.851C485.56 507.887 488.004 506.255 489.039 503.752C490.076 501.248 489.503 498.368 487.588 496.452L425.608 434.472C423.691 432.555 420.811 431.983 418.308 433.02C415.804 434.057 414.172 436.5 414.172 439.208V501.188C414.172 504.888 417.17 507.887 420.871 507.887ZM427.569 455.381L466.678 494.49H427.569V455.381Z" fill="#333333"/>
<path d="M602.579 297.635C601.449 295.351 599.122 293.906 596.574 293.906H560.079V271.859C560.079 268.16 557.081 265.16 553.381 265.16H372.809V208.698C372.809 204.999 369.811 202 366.11 202H324.581C320.881 202 317.883 204.999 317.883 208.698V265.161H277.406V218.843C277.406 215.144 274.408 212.145 270.707 212.145H244.208C235.334 212.145 226.994 215.598 220.72 221.873C214.451 228.152 211 236.491 211.002 245.351V468.539C211.001 468.652 211 468.766 211 468.881C211 477.754 214.453 486.094 220.724 492.364C226.994 498.634 235.333 502.087 244.208 502.087H389.164V526.197C389.164 529.896 392.162 532.895 395.863 532.895H543.226C545.935 532.895 548.379 531.264 549.414 528.76C550.451 526.256 549.878 523.376 547.963 521.46L528.59 502.087H553.381C557.081 502.087 560.08 499.088 560.08 495.388V356.591H596.575C599.123 356.591 601.45 355.146 602.58 352.862C611.131 335.571 611.131 314.926 602.579 297.635ZM448.675 322.237C448.853 323.224 448.955 324.228 448.955 325.246C448.955 326.266 448.853 327.272 448.675 328.259L444.183 325.248L448.675 322.237ZM460.344 314.413L465.435 310.999C467.907 320.32 467.907 330.176 465.435 339.497L460.344 336.084C461.666 332.654 462.352 328.992 462.352 325.247C462.353 321.505 461.665 317.845 460.344 314.413ZM480.359 331.947H566.791C566.268 335.782 565.29 339.559 563.86 343.193H478.307C479.301 339.498 479.99 335.737 480.359 331.947ZM566.791 318.55H480.359C479.992 314.76 479.303 310.999 478.308 307.304H563.861C565.29 310.94 566.267 314.716 566.791 318.55ZM359.412 215.397V417.686H331.28V402.95H340.657C344.357 402.95 347.355 399.951 347.355 396.252C347.355 392.552 344.357 389.553 340.657 389.553H331.28V371.067H340.657C344.357 371.067 347.355 368.068 347.355 364.369C347.355 360.669 344.357 357.67 340.657 357.67H331.28V339.184H340.657C344.357 339.184 347.355 336.185 347.355 332.486C347.355 328.786 344.357 325.787 340.657 325.787H331.28V307.298H340.657C344.357 307.298 347.355 304.299 347.355 300.599C347.355 296.899 344.357 293.901 340.657 293.901H331.28V275.414H340.657C344.357 275.414 347.355 272.415 347.355 268.716C347.355 265.017 344.357 262.018 340.657 262.018H331.28V243.53H340.657C344.357 243.53 347.355 240.531 347.355 236.831C347.355 233.13 344.357 230.132 340.657 230.132H331.28V215.397H359.412ZM230.198 231.34C233.937 227.601 238.912 225.541 244.208 225.541H264.008V435.673H244.208C236.79 435.673 229.933 438.118 224.399 442.243L224.397 245.351C224.397 240.063 226.459 235.085 230.198 231.34ZM402.561 519.499V395.006L527.054 519.498H402.561V519.499ZM546.682 488.69H515.192L400.599 374.098C398.682 372.182 395.802 371.609 393.299 372.646C390.795 373.683 389.163 376.126 389.163 378.835V488.691H244.208C238.912 488.691 233.937 486.631 230.198 482.892C226.458 479.151 224.397 474.176 224.397 468.881L224.399 468.618C224.54 457.815 233.372 449.071 244.208 449.071H270.707C274.408 449.071 277.406 446.072 277.406 442.373V278.559H317.883V424.384C317.883 428.083 320.881 431.082 324.581 431.082H366.11C369.81 431.082 372.809 428.083 372.809 424.384V278.559H546.682V293.907H468.911C467.582 293.907 466.284 294.302 465.181 295.042L428.425 319.685C426.57 320.929 425.457 323.015 425.457 325.248C425.457 327.48 426.57 329.568 428.425 330.811L465.181 355.455C466.284 356.194 467.582 356.59 468.911 356.59H546.682V488.69ZM592.221 343.194H578.03C581.517 331.519 581.517 318.978 578.03 307.305H592.221C596.733 318.784 596.733 331.713 592.221 343.194Z" fill="#333333"/>
</svg>
