<svg width="231" height="276" viewBox="0 0 231 276" fill="none" xmlns="http://www.w3.org/2000/svg">
<path fill-rule="evenodd" clip-rule="evenodd" d="M136.924 129.641C132.993 140.098 131.889 150.742 132.252 162.358C132.576 167.628 133.974 173.189 136.731 177.965C138.307 180.694 137.164 184.993 134.445 186.562L107.938 201.866C106.579 202.651 104.826 202.753 103.072 202.856C101.319 202.958 100.138 200.912 99.3498 199.547C93.4413 189.313 90.2514 177.51 89.4944 165.212C87.911 145.203 91.6955 126.644 98.9864 107.88C100.987 100.357 102.593 92.1524 102.446 84.05C102.624 81.2185 101.728 78.097 100.547 76.0502C99.3649 74.0034 98.5771 72.639 96.7157 70.9847C92.993 67.676 88.3047 65.8342 83.4389 66.8241C80.6121 66.6369 77.4996 67.5243 75.4606 68.7015C73.4216 69.8787 72.4562 71.3458 70.4172 72.523C67.127 76.242 65.3041 80.9329 66.3082 85.8113C66.4163 87.5682 67.3124 90.6897 68.1003 92.0542C69.6759 94.7832 68.1387 98.3996 65.42 99.9692L38.2334 115.665C36.8741 116.45 35.1211 116.553 33.3678 116.655C31.2207 116.076 30.4328 114.711 29.645 113.347C25.3121 105.842 23.412 97.8421 22.8713 89.0575C21.79 71.4883 26.8642 56.7329 37.7003 44.109C42.6356 38.5306 47.9649 33.6344 54.4757 30.785C62.6317 26.0762 71.2897 23.8064 80.7355 22.9012C97.1943 21.5858 112.618 26.326 125.648 37.9065C130.838 42.1873 135.063 47.9353 138.608 54.0756C143.335 62.2627 145.628 70.9446 146.563 80.4114C147.644 97.9806 143.752 114.783 136.924 129.641Z" fill="#F4FBFE"/>
<path fill-rule="evenodd" clip-rule="evenodd" d="M168.74 217.705C172.285 223.846 173.397 230.481 171.397 238.004C169.003 244.844 165.821 250.32 159.024 254.244C152.907 257.776 146.288 258.868 138.773 256.839C131.258 254.81 126.068 250.529 122.523 244.389C118.977 238.249 117.865 231.613 120.26 224.773C121.974 218.325 126.516 212.064 132.633 208.533C138.75 205.001 145.369 203.909 152.204 206.33C158.931 206.994 164.801 210.883 168.74 217.705Z" fill="#F4FBFE"/>
</svg>
