<svg width="395" height="401" viewBox="0 0 395 401" fill="none" xmlns="http://www.w3.org/2000/svg"><path opacity="0.15" fill-rule="evenodd" clip-rule="evenodd" d="M313.414 141.383C326.813 111.833 329.011 86.4304 322.863 65.7414C317.427 47.3811 305.463 32.6842 288.988 21.8566C272.559 11.1081 251.618 4.2289 228.273 1.58315C169.225 -5.21494 94.4332 14.5709 36.8479 64.8902C22.2767 77.6236 13.2731 89.7773 8.41098 101.437C-16.1952 146.626 24.3729 183.485 54.6203 208.492C91.1514 238.723 100.487 263.473 111.565 331.585C112.345 336.404 113.44 341.041 114.84 345.291C121.189 375.454 140.736 392.517 164.198 398.468C174.954 401.216 186.424 401.549 197.93 399.754C209.356 398.004 220.695 394.093 231.096 388.193C240.074 383.115 248.343 376.444 255.271 368.545C275.824 349.196 288.378 320.555 282.935 285.021C276.118 240.901 264.504 225.897 294.276 178.884C302.562 165.67 308.847 153.189 313.414 141.383ZM285.362 232.086C286.4 153.924 403.859 128.263 393.703 210.53C386.937 265.443 355.362 301.483 328.023 304.516C304.825 307.054 284.659 285.817 285.362 232.086ZM19.1105 86.1963C23.8707 79.6542 30.1359 72.9807 37.9854 66.1303C95.2212 16.1182 169.448 -3.55178 228.168 3.22514C251.309 5.88313 271.954 12.6165 288.213 23.2526C304.348 33.8552 316.129 48.236 321.461 66.2344C325.965 81.3385 325.873 98.886 320.164 118.938C345.096 -4.00342 152.022 -32.273 33.3468 71.97C27.7074 76.8067 23.041 81.5032 19.1105 86.1963ZM121.349 360.397C145.039 402.89 201.249 405.32 240.93 379.67C237.489 382.289 233.989 384.625 230.274 386.77C220.11 392.533 208.976 396.432 197.707 398.091C186.484 399.828 175.093 399.449 164.586 396.768C146.112 392.153 130.109 380.316 121.349 360.397Z" fill="white"></path></svg>