<svg width="440" height="437" viewBox="0 0 440 437" fill="none" xmlns="http://www.w3.org/2000/svg">
<path opacity="0.05" fill-rule="evenodd" clip-rule="evenodd" d="M106.159 311.679C100.382 346.412 105.185 373.642 117.417 393.583C128.25 411.286 144.901 423.311 165.198 430.011C185.425 436.641 209.299 437.947 234.508 434.14C298.3 424.622 371.157 382.818 417.438 313.877C429.148 296.431 435.185 281.162 437.02 267.577C450.169 213.303 397.337 186.122 358.637 168.449C311.89 147.074 295.181 123.776 264.516 55.5448C262.351 50.7161 259.905 46.1677 257.249 42.1097C242.157 12.2995 216.895 -0.0667074 190.639 0.310605C178.597 0.463128 166.481 3.34625 154.924 8.46924C143.436 13.5221 132.646 20.8148 123.395 29.9262C115.405 37.776 108.604 47.0948 103.553 57.3221C87.4227 83.3839 82.2769 116.926 97.9229 152.617C117.411 196.915 133.781 209.36 115.728 267C110.74 283.179 107.644 298.025 106.159 311.679ZM110.187 208.755C130.966 290.929 15.031 350.911 2.66095 261.867C-5.60901 202.434 17.4039 155.781 45.2106 144.9C68.8148 135.703 95.8929 152.269 110.187 208.755ZM430.069 286.558C426.91 294.753 422.21 303.51 415.899 312.898C369.899 381.419 297.602 422.942 234.159 432.39C209.161 436.127 185.637 434.891 165.62 428.33C145.743 421.77 129.372 410.024 118.748 392.672C109.801 378.118 104.989 359.71 105.363 337.095C113.624 472.913 323.9 448.12 419.127 305.473C423.685 298.817 427.262 292.582 430.069 286.558ZM246.201 28.1184C209.483 -9.7209 149.888 3.57352 115.471 41.6267C118.346 37.913 121.36 34.4792 124.654 31.1851C133.695 22.284 144.275 15.0616 155.622 10.1489C166.899 5.16619 178.945 2.35313 190.707 2.2009C211.362 1.8294 231.447 9.72011 246.201 28.1184Z" fill="#601AE2"/>
</svg>
