<svg width="240" height="336" viewBox="0 0 240 336" fill="none" xmlns="http://www.w3.org/2000/svg">
<path opacity="0.05" fill-rule="evenodd" clip-rule="evenodd" d="M215.442 286.472C196.006 313.66 174.504 328.712 152.908 333.887C133.754 338.496 114.505 335.392 96.3838 326.266C78.3561 317.141 61.4551 301.994 47.0893 282.52C10.6583 233.318 -10.1863 156.363 5.02461 79.0311C8.87427 59.463 15.0713 45.1633 22.9584 34.8148C50.5633 -10.4364 104.271 6.77972 142.11 20.8913C187.837 37.9193 214.691 33.4977 281.074 8.28495C285.769 6.49748 290.464 5.08628 294.971 4.14552C325.111 -5.73263 350.368 2.92252 367.739 20.7972C375.72 28.9819 381.917 39.0482 386.236 50.2434C390.555 61.3445 392.902 73.4805 392.996 85.8046C393.09 96.4354 391.4 107.254 387.926 117.509C381.259 145.826 362.199 171.791 327.74 185.244C284.924 201.896 265.582 199.262 239.009 250.064C231.498 264.269 223.611 276.311 215.442 286.472ZM281.825 214.691C212.719 255.896 250.277 373.963 318.35 322.503C363.795 288.165 379.663 241.408 368.302 215.443C358.631 193.429 329.336 186.373 281.825 214.691ZM14.8835 52.2191C11.5033 59.8393 8.78037 68.8707 6.71467 79.4074C-8.4023 156.269 12.2545 232.659 48.4977 281.58C62.7697 300.865 79.3889 315.824 97.2289 324.855C114.975 333.792 133.848 336.897 152.627 332.381C168.401 328.618 183.987 319.493 198.917 304.064C102.205 389.674 -22.2987 231.907 9.5315 72.2575C10.9399 64.7314 12.7239 58.1459 14.8835 52.2191ZM311.778 2.16993C361.823 1.4173 392.902 50.3375 390.461 98.9754C391.024 94.5538 391.306 90.2263 391.306 85.8046C391.212 73.7627 388.959 61.8149 384.64 50.9019C380.414 39.989 374.217 30.0168 366.424 22.0202C352.809 7.9086 334.031 -0.276087 311.778 2.16993Z" fill="#601AE2"/>
</svg>
