<svg width="301" height="297" viewBox="0 0 301 297" fill="none" xmlns="http://www.w3.org/2000/svg">
<path opacity="0.05" fill-rule="evenodd" clip-rule="evenodd" d="M97.3581 240.665C106.638 265.267 119.96 281.081 135.362 289.417C149.019 296.826 164.316 298.399 179.979 295.173C195.571 291.928 211.528 283.883 226.434 272.037C264.197 242.133 295.729 187.984 299.865 126.188C300.911 110.551 299.098 98.4332 295.193 88.9691C283.362 48.9903 238.94 51.0916 207.239 54.0762C168.936 57.6641 149.375 48.8259 103.923 16.1383C100.709 13.8232 97.4191 11.7937 94.1764 10.1596C73.2207 -3.49062 52.2162 -2.07842 35.3462 7.94112C27.6008 12.5235 20.8321 18.898 15.2646 26.5127C9.71623 34.056 5.45976 42.7873 2.88201 52.1215C0.648627 60.1704 -0.263742 68.7263 0.297942 77.2181C-0.381213 100.07 8.86127 123.668 32.3809 140.913C61.6172 162.292 76.8902 164.242 86.8053 208.222C89.6397 220.537 93.2003 231.286 97.3581 240.665ZM297.806 103.827C298.832 110.3 299.07 117.71 298.501 126.129C294.389 187.548 263.115 241.307 225.552 271.035C210.756 282.758 195.051 290.718 179.622 293.93C164.284 297.09 149.273 295.593 135.883 288.332C124.629 282.256 114.609 272.148 106.372 257.39C162.649 342.108 289.595 247.79 297.809 120.127C298.266 114.128 298.246 108.766 297.806 103.827ZM81.7724 5.22895C43.7943 -5.55945 10.1661 25.2231 2.13522 62.6349C2.60515 59.1641 3.27057 55.8223 4.16974 52.4665C6.6901 43.3466 10.8368 34.7389 16.3469 27.3384C21.7854 19.9187 28.535 13.6156 36.0991 9.13769C49.3422 1.20735 65.3147 -1.17052 81.7724 5.22895Z" fill="#601AE2"/>
</svg>
